<svg width="1196" height="260" xmlns="http://www.w3.org/2000/svg">
 <g id="Layer_1">
  <title>Layer 1</title>
  <g id="svg_6">
   <path stroke-width="9" id="svg_2" d="m241.20346,129.70344l-28.82704,-28.82704l0,-68.84785l-24.71293,0l0,44.13493l-57.6635,-57.66349l-111.20347,111.20344l26.47343,-0.63077l0,112.42732l168.28327,0l0,-111.79656l27.65024,0zm-111.20347,95.71668l-54.91448,0l0,-65.90113l54.91448,0l0,65.90113zm53.35168,-28.24334l-36.08558,0l0,-38.05319l36.08558,0l0,38.05319z" stroke="#007fff" fill="#fff"/>
   <path stroke="#007fff" stroke-width="0" id="svg_1" d="m103.17082,184.75339c8.03976,-19.8172 39.53981,0 0,25.47926c-39.53981,-25.47926 -8.03976,-45.29646 0,-25.47926z" fill="#007fff"/>
   <path id="svg_5" d="m99.29057,93.97993l20.82087,0l0,-20.82087l21.35826,0l0,20.82087l20.82087,0l0,21.35826l-20.82087,0l0,20.82087l-21.35826,0l0,-20.82087l-20.82087,0l0,-21.35826z" stroke="#007fff" fill="#007fff"/>
  </g>
  <text xml:space="preserve" text-anchor="start" font-family="'Lemonada'" font-size="116" id="svg_7" y="171" x="276" stroke-width="2" stroke="#007fff" fill="#007fff">Health Guard</text>
 </g>
</svg>